<svg xmlns="http://www.w3.org/2000/svg" xml:space="preserve" style="fill-rule:evenodd;clip-rule:evenodd;stroke-linecap:round;stroke-linejoin:round" viewBox="0 0 400 222.75"><path fill="#0c2b80" d="M231.207 628.991a61.48 61.48 0 0 0-30.142 7.851c-8.909-4.996-19.178-7.851-30.125-7.851-28.357 0-52.239 19.117-59.52 45.158h-1.071c9.106-41.737 46.253-73.002 90.733-73.002 44.455 0 81.597 31.265 90.706 73.002h-1.073c-7.274-26.041-31.151-45.158-59.508-45.158"/><path fill="#5b9bc7" d="M201.066 636.841a61.473 61.473 0 0 1 30.142-7.85c28.354 0 52.234 19.116 59.506 45.158h-60.255c-4.467-15.99-15.196-29.356-29.393-37.308"/><path fill="#4cb699" d="M170.939 628.991c10.947 0 21.216 2.855 30.128 7.851-14.192 7.951-24.924 21.317-29.393 37.307h-60.253c7.279-26.041 31.162-45.158 59.518-45.158"/><path fill="#0c2b80" d="m1.07 823.9 4.678-9.015h390.64l4.682 9.015h-400ZM351.908 699.188l-2.666 98.754h19.487l-2.619-98.754h-14.202ZM307.373 699.114l-2.671 99.303h19.588l-2.634-99.303h-14.283ZM262.017 699.114l-2.686 99.303h19.596l-2.636-99.303h-14.274ZM216.643 699.114l-2.684 99.303h19.591l-2.634-99.303h-14.273ZM171.278 699.114l-2.689 99.303h19.596l-2.639-99.303h-14.268ZM125.903 699.114l-2.684 99.303h19.592l-2.637-99.303h-14.271ZM80.528 699.114l-2.68 99.303h19.595l-2.639-99.303H80.528ZM35.163 699.114l-2.686 99.303h19.596l-2.634-99.303H35.163ZM401.069 683.163l-4.682 9.017H5.747l-4.677-9.017h399.999ZM382.596 805.35l2.743 5.281H16.798l2.743-5.281h363.055Z"/><path fill="#69747a" d="M71.494 805.841H68.89v-.939h6.337v.939h-2.616v7.62h-1.117v-7.62Z"/><path fill="#0c2b80" d="M231.207 628.991a61.48 61.48 0 0 0-30.142 7.851c-8.909-4.996-19.178-7.851-30.125-7.851-28.357 0-52.239 19.117-59.52 45.158h-1.071c9.106-41.737 46.253-73.002 90.733-73.002 44.455 0 81.597 31.265 90.706 73.002h-1.073c-7.274-26.041-31.151-45.158-59.508-45.158"/><path fill="#5b9bc7" d="M201.066 636.841a61.473 61.473 0 0 1 30.142-7.85c28.354 0 52.234 19.116 59.506 45.158h-60.255c-4.467-15.99-15.196-29.356-29.393-37.308"/><path fill="#4cb699" d="M170.939 628.991c10.947 0 21.216 2.855 30.128 7.851-14.192 7.951-24.924 21.317-29.393 37.307h-60.253c7.279-26.041 31.162-45.158 59.518-45.158"/><path fill="#0c2b80" d="m1.07 823.9 4.678-9.015h390.64l4.682 9.015h-400ZM216.643 699.114l-2.684 99.303h19.591l-2.634-99.303h-14.273ZM171.278 699.114l-2.689 99.303h19.596l-2.639-99.303h-14.268ZM125.903 699.114l-2.684 99.303h19.592l-2.637-99.303h-14.271ZM80.528 699.114l-2.68 99.303h19.595l-2.639-99.303H80.528ZM35.163 699.114l-2.686 99.303h19.596l-2.634-99.303H35.163ZM401.069 683.163l-4.682 9.017H5.747l-4.677-9.017h399.999ZM382.596 805.35l2.743 5.281H16.798l2.743-5.281h363.055ZM169.863 27.845a61.478 61.478 0 0 1 30.142 7.85c8.909-4.996 19.178-7.85 30.125-7.85 28.356 0 52.239 19.116 59.52 45.157h1.071C281.614 31.265 244.468 0 199.988 0c-44.456 0-81.598 31.265-90.707 73.002h1.074c7.274-26.041 31.151-45.157 59.508-45.157"/><path fill="#5b9bc7" d="M200.004 35.694a61.473 61.473 0 0 0-30.143-7.85c-28.354 0-52.233 19.116-59.505 45.158h60.255c4.467-15.99 15.196-29.356 29.393-37.308"/><path fill="#4cb699" d="M230.13 27.845c-10.946 0-21.216 2.854-30.127 7.85 14.192 7.952 24.924 21.317 29.393 37.307h60.252c-7.279-26.041-31.161-45.157-59.518-45.157"/><path fill="#0c2b80" d="m399.999 222.753-4.677-9.015H4.682L0 222.753h399.999ZM49.162 98.041l2.666 98.754H32.341l2.62-98.754h14.2ZM93.697 97.967l2.671 99.303H76.78l2.634-99.303h14.283ZM139.052 97.967l2.686 99.303h-19.596l2.637-99.303h14.273ZM184.427 97.967l2.684 99.303h-19.592l2.634-99.303h14.274ZM229.792 97.967l2.689 99.303h-19.597l2.639-99.303h14.269ZM275.167 97.967l2.683 99.303h-19.591l2.637-99.303h14.271ZM320.541 97.967l2.681 99.303h-19.596l2.639-99.303h14.276ZM365.906 97.967l2.686 99.303h-19.596l2.634-99.303h14.276ZM0 82.016l4.683 9.018h390.64L400 82.016H0ZM18.474 204.203l-2.743 5.281h368.541l-2.743-5.281H18.474ZM169.863 27.845a61.478 61.478 0 0 1 30.142 7.85c8.909-4.996 19.178-7.85 30.125-7.85 28.356 0 52.239 19.116 59.52 45.157h1.071C281.614 31.265 244.468 0 199.988 0c-44.456 0-81.598 31.265-90.707 73.002h1.074c7.274-26.041 31.151-45.157 59.508-45.157"/><path fill="#5b9bc7" d="M200.004 35.694a61.473 61.473 0 0 0-30.143-7.85c-28.354 0-52.233 19.116-59.505 45.158h60.255c4.467-15.99 15.196-29.356 29.393-37.308"/><path fill="#4cb699" d="M230.13 27.845c-10.946 0-21.216 2.854-30.127 7.85 14.192 7.952 24.924 21.317 29.393 37.307h60.252c-7.279-26.041-31.161-45.157-59.518-45.157"/><path fill="#0c2b80" d="m399.999 222.753-4.677-9.015H4.682L0 222.753h399.999ZM184.427 97.967l2.684 99.303h-19.592l2.634-99.303h14.274ZM229.792 97.967l2.689 99.303h-19.597l2.639-99.303h14.269ZM275.167 97.967l2.683 99.303h-19.591l2.637-99.303h14.271ZM320.541 97.967l2.681 99.303h-19.596l2.639-99.303h14.276ZM365.906 97.967l2.686 99.303h-19.596l2.634-99.303h14.276ZM0 82.016l4.683 9.018h390.64L400 82.016H0ZM18.474 204.203l-2.743 5.281h368.541l-2.743-5.281H18.474Z"/></svg>