<svg xmlns="http://www.w3.org/2000/svg" xml:space="preserve" style="fill-rule:evenodd;clip-rule:evenodd;stroke-linecap:round;stroke-linejoin:round" viewBox="0 0 342 342"><path fill="#cfa547" d="M171 .527C76.858.527.497 76.857.497 171.03c0 94.152 76.34 170.503 170.503 170.503 94.162 0 170.503-76.32 170.503-170.503 0-18.876-3.067-37.037-8.731-54.011-11.976-35.888-35.559-66.468-66.299-87.28C239.236 11.3 206.379.527 171 .527"/><path fill="#580009" d="M171 7.113C80.516 7.113 7.113 80.466 7.113 171c0 90.494 73.363 163.887 163.887 163.887 90.574 0 163.987-73.353 163.987-163.887C334.987 80.496 261.534 7.113 171 7.113Zm-.02 19.867c11.026.03 21 6.635 25.47 16.81 9.653-.953 16.519 4.25 18.394 5.873 7.407 5.984 9.021 14.635 9.312 16.6 1.724.681 6.926 3.127 9.652 9.131.852 1.854 1.283 4.04 1.283 6.305v.32c.111-.04.231-.08.351-.12 2.145-.701 4.371-.942 6.405-.731 6.556.751 10.485 4.931 11.658 6.385 1.975-.361 10.685-1.484 18.644 3.689 2.145 1.293 9.232 6.224 11.307 15.707 11.056 1.102 20.398 8.54 23.866 19.045l-.02.05c3.358 10.495.17 22.012-8.119 29.409 3.889 8.891 1.072 17.03.1 19.326-3.418 8.891-11.126 13.101-12.92 13.973-.111 1.864-.822 7.568-5.694 12.008-1.513 1.384-3.458 2.486-5.613 3.178-.09.02-.201.06-.301.09.08.09.16.19.221.281 1.343 1.844 2.275 3.869 2.686 5.873 1.323 6.456-1.443 11.498-2.466 13.051.932 1.775 4.711 9.703 2.245 18.875-.561 2.436-3.067 10.695-11.437 15.597 2.356 10.865-1.834 22.052-10.745 28.577-8.951 6.446-20.899 6.977-30.492 1.384-7.247 6.435-15.867 6.254-18.333 6.064-9.523-.511-15.908-6.526-17.291-7.969-1.804.481-7.448 1.564-13.181-1.704-1.784-1.022-3.428-2.526-4.752-4.36-.07-.08-.13-.181-.19-.271-.06.1-.14.211-.2.311-1.324 1.824-2.977 3.338-4.752 4.36-5.733 3.248-11.387 2.175-13.181 1.694-1.383 1.423-7.778 7.458-17.261 7.949-2.485.23-11.106.391-18.363-6.054-9.593 5.593-21.54 5.062-30.492-1.384-8.901-6.525-13.1-17.712-10.745-28.577-8.37-4.902-10.866-13.151-11.427-15.567-2.466-9.202 1.303-17.13 2.235-18.895-1.002-1.563-3.779-6.595-2.456-13.06.431-1.995 1.353-4.03 2.686-5.864l.19-.251c-.11-.04-.23-.08-.34-.11-2.145-.702-4.09-1.794-5.613-3.178-4.872-4.45-5.583-10.154-5.694-12.018-1.794-.862-9.502-5.082-12.91-13.953-.972-2.295-3.8-10.445.09-19.336-8.29-7.397-11.477-18.924-8.11-29.429 3.46-10.485 12.811-17.933 23.847-19.055 2.085-9.473 9.162-14.394 11.287-15.687 7.989-5.193 16.7-4.07 18.654-3.72 1.183-1.443 5.112-5.642 11.678-6.374 2.024-.23 4.24.04 6.395.732l.3.09c-.02-.1-.02-.23-.02-.351 0-2.255.461-4.45 1.293-6.305 2.727-6.004 7.929-8.45 9.663-9.132.291-1.974 1.905-10.615 9.292-16.589 1.875-1.644 8.771-6.836 18.424-5.884 4.47-10.164 14.454-16.77 25.49-16.81Z"/><path fill="#fff" d="M171 107.249c-35.193 0-63.731 28.528-63.731 63.731 0 35.193 28.538 63.73 63.731 63.73 35.203 0 63.731-28.527 63.731-63.73 0-35.203-28.528-63.731-63.731-63.731Zm19.366 32.397c.24 0 .471.02.711.03l.351.01-.02-.03c.131.01.281.02.411.02.05 0 .11 0 .161-.01.28.06.601.07.872.08.28.01.531.06.541.08.17.121.361.241.531.341.281.15.301.271.652.461.15.161.11.531.22.912.03.07.05.311.05.602 0 .28-.01.601-.03.902v1.443c.06.501.181.943.181 1.343v.071c-.03.17-.07.36-.161.521l-.02.04v.571l.181.02c.421.05 1.563.181 2.746.181.742 0 1.514-.04 2.125-.201-.02 0 .201-.01.562-.03.34-.02.821-.03 1.373-.03.451 0 .952.01 1.463.04h.04c.451-.08.983-.1 1.524-.1.651 0 1.313.03 1.884.03.642.02 1.344.09 2.045.16.311.171.562.371.672.542l.05.05c.441.571.651 1.694.651 2.927 0 1.022-.15 1.964-.451 2.586l-.04.07.01.01c-.11.281-.27.491-.411.622-.14.14-.25.2-.25.2-.151.05-.421.08-.722.08h-.18c-.131.02-.231.02-.291.02l-.04-.03-.07-.01c-.341-.03-.632-.06-.812-.06h-.05c-.121.02-.05.02-.091.03l-.2.1c-.04.02-.08.04-.11.05-.02.01-.03.01-.03.01h-.01c-.051 0-.321-.08-.472-.09-.08 0-.16-.01-.25-.01-.642.01-1.524.121-2.286.121l-1.523.03.441.3c.912.491 2.085 1.835 2.185 2.165.13.462.201.672.531 1.344.191.441.111.421.351.972.12.351.301 1.002.301 1.453a.93.93 0 0 1-.03.261l-.03.12.06.05c.06.251.21 1.514.21 2.246 0 .1-.01.19-.01.27v.05l.02.051c.03.03.091.601.081.791 0 .051 0 .101-.01.171l-.01.05.02.04c.14.351.21.591.21.862 0 .291-.07.632-.24 1.183-.562 1.704-.692 2.977-1.624 4.41-.912 1.353-1.404 2.917-2.747 3.328-.421.13-1.052.652-1.303.882-.2.181-.651.732-.842 1.013-.04.1-.441.21-.661.26-.061.01-.091.03-.091.03l-.07.02-.03.05a22.723 22.723 0 0 1-3.789 1.304l-.15.04-.04 1.613.17 3.138v1.694l.812.07.03-.01c.171-.04.371-.06.592-.06.37 0 .701.07.892.16l.04.01h.16c.04.01.13.04.261.05h.15c.672-.01 1.413-.18 2.055-.18.271 0 .521.03.742.11l.03.01h.731l.061-.05c.27-.24.561-.321 1.072-.361h.06c.171 0 .361.03.582.03.1 0 .21-.01.33-.03h.061c.21-.01.521.131.882.131h.09l5.302.16 4.722-.191.01-4.25.15-5.062c-.01-.571-.06-1.092-.06-1.623 0-.201.01-.401.03-.612.03-.331.04-.651.04-.972 0-.481-.02-.962-.02-1.443 0-.512.11-.993.14-1.544v-.09c0-.562-.18-.993-.23-1.474-.101-.962-.211-1.744-.211-2.486 0-.411.03-.822.12-1.243.081-.33.151-.34.201-1.343.01-.12.01-.23.01-.331 0-.691-.13-1.092-.13-1.724v-.15c.02-.882 0-1.504.07-2.386.03-.431.02-.912.06-1.323.01-.08.01-.14.01-.21 0-.291-.04-.501-.05-.892v-.121c0-.24.03-.571.06-1.072l-.16-5.233v-6.976c0-.14.03-.982.812-1.464.721-.451 2.115-.661 3.628-.661 1.514 0 2.917.21 3.629.661.772.482.812 1.334.812 1.464v2.386l.07.882-.221 6.716c-.06.19-.09.411-.09.631v.05l.15 1.824c0 .201.01.421.01.642 0 .411-.02.812-.08 1.233-.03.2-.04.391-.04.571 0 .511.09.952.14 1.494v.22c0 .722-.11 1.734-.11 2.406 0 .11 0 .22.01.321v.05c0 .281-.18.671-.19 1.082a49.007 49.007 0 0 0-.07 3.819l.03 12.35c.09.902.11 1.804.11 2.706 0 .822-.02 1.644-.02 2.446v.04c.01.341.15.631.14.832v.02c-.02.321 0 .17-.17.531-.181.341-.171.612-.201.962-.01.111-.01.241-.01.401 0 .391.02.882.02 1.163v.09c-.01.351-.02.532-.02.712 0 .18.02.361.081.672.11.571.541 1.984.541 2.766 0 .13-.02.241-.04.311-.01.03-.02.06-.02.09-.03.221-.321 1.484-.321 1.704 0 .02-.01.04.01.08 0 0 .01.08.01.191 0 .561-.211 1.884-.211 2.466 0 .09.011.15.021.22.06.321.14.732.19 1.053.04.501.16.962.21 1.413l.041 1.133.03.18v.712c0 .13-.04.982-.812 1.463-.722.451-2.115.662-3.629.662-1.513 0-2.917-.211-3.628-.662-.772-.481-.812-1.333-.812-1.463v-9.413H213.982c-2.286 0-6.396-.26-6.797-.29-.02-.01-.06-.01-.09-.01-.591.01-1.253.381-1.674.371-.15 0-.24-.04-.32-.111-.041-.05-.061-.05-.071-.05h-.01c-.15-.03-1.944-.09-3.428-.09-.521 0-.982.01-1.313.03h-.01c-.1.03-.11-.09-.401-.14h-.27c-.842 0-1.414.18-2.316.18-.972 0-1.534.09-2.456.11-.09-.03-.15-.03-.23-.03H194.255c-.07 0-.14 0-.18-.01H194.024c-.36-.19-.992-.28-1.323-.29h-.08c-.952 0-1.924-.211-2.907-.211-.25 0-.501.02-.752.05-.21.02-.421.03-.641.03-.311 0-.622-.01-.942-.01-.07 0-.151.01-.221.01-.25 0-.541.05-.752.05-.06 0-.11 0-.14-.01-.06-.02-.13-.02-.22-.02-.321 0-.852.071-1.093.071h-.07a3.392 3.392 0 0 0-1.033-.171c-.962.01-1.634.411-2.676.431-.301.01-.672.07-.972.07-.131 0-.241 0-.321-.03a6.4 6.4 0 0 0-1.824-.24c-1.093 0-2.155.21-3.198.361-.391.06-.852.17-1.273.17-.341 0-.641-.07-.862-.251l-.06-.05H172.423c-.33 0-.631-.05-.912-.14l-.03-.01h-.1c-.14.01-1.002-.04-1.474-.662-.441-.571-.651-1.704-.651-2.927 0-1.222.21-2.355.651-2.926.131-.181.301-.311.482-.411l.02-.01.02-.021c.381-.36.902-.541 1.583-.541.111 0 .231.01.351.02l1.875.07c.972.04 1.894.061 2.816.181.121.02.231.02.341.02.291 0 .541-.03.782-.03.15 0 .281.02.431.05.341.07.631.1.902.1.411 0 .782-.06 1.253-.1.06-.01.13-.01.201-.01.791 0 2.265.311 3.057.311h.14c.231-.01.441-.081.622-.111.14-.01.33-.02.541-.02.17 0 .341.01.511.02l.201.01.02-.491-.141-1.844v-4.35l-.15-.04a16.83 16.83 0 0 1-3.148-1.153l-.03-.02h-.04c-.22-.02-.441-.04-.661-.101-.622-.15-.812-.481-1.514-.791-.561-.211-1.123-1.013-1.824-1.544-.782-.531-1.403-.982-1.724-1.614-.592-1.032-1.103-2.215-1.584-3.318-.15-.27-.07-1.032-.12-1.493-.05-.321-.08-.562-.111-.852-.14-.702-.22-1.394-.25-2.105v-.04c-.171-.662-.251-.973-.251-1.664v-.06l-.01-.03h.01c0-.933.371-1.805.732-2.577.471-1.012.411-1.683.892-2.856.12-.341.952-1.404 1.824-2.266.281-.34.562-.651.862-.962l.301-.311-2.867-.2h-.02c-.35.05-.862.17-1.132.17-.04 0-.081-.01-.101-.01-.12-.02-.26-.03-.421-.03-.681 0-1.734.131-2.245.131h-.1c-.07-.01-.13-.01-.201-.01-.16 0-.29.01-.401.01-.16 0-.3-.021-.521-.121-.541-.28-.371-.28-.711-.641 0 0-.111-.181-.151-.251-.341-.621-.501-1.624-.501-2.696 0-1.223.211-2.356.652-2.927.1-.13.21-.221.34-.311.081-.07.141-.1.191-.12.02-.01.04-.02.07-.03.06-.03.12-.05.18-.07.261-.101.472-.151.712-.151.09 0 .171 0 .271.02.331.04.992.08 1.563.08.271 0 .512-.01.702-.03.351-.04.501-.02.912-.06.08-.01.151-.01.221-.01h.23c.131 0 .281-.01.461-.05.141-.03.251-.04.371-.04h.261c.1 0 .21 0 .331-.02.04 0 .12-.01.18-.01.03 0 .05.01.07.01.131.1.261.11.391.11.231 0 .481-.06.602-.06h.651l1.283-.02h.09c.652 0 1.324.07 2.005.09h3.448v-5.222l-.02-.02h.02c0-.13.03-.982.812-1.464.712-.451 2.115-.661 3.619-.661Zm-55.602 1.774c.211-.01.461.211.832.371.03.02.05.03.06.03l.031.02 1.222.16c.241 0 .472 0 .742-.05.421-.05.712-.25.973-.29.13-.03.27-.04.441-.04.581 0 1.343.13 1.874.17.19 0 .381.01.571.01 1.704 0 3.94-.211 5.493-.281.171 0 .341-.01.522-.01.952 0 1.994.111 3.017.161h1.543c.101 0 .201 0 .301-.01l2.446-.171c.15-.01.311-.02.501-.02.702 0 1.644.1 2.145.211h1.544c1.092 0 2.095.391 2.876 1.032.101.09.191.171.281.261.08.06.13.1.151.12l.01.01.01.02.01.04.03.03c.13.141.24.271.34.421l.021.03.02.02c.32.221.631.492.591.552v.02l-.01.06.451 1.102.01.02c.05.081.1.131.12.151 0 .01 0 .04-.01.07-.04.12-.07.271-.08.431v.04c0 .411.11.712.11 1.053 0 .06 0 .12-.01.18-.07.561-.13 1.243-.18 1.524-.08.35-.05.661-.13.932-.051.16-.061.361-.061.621 0 .922.191 2.506.191 3.408 0 .241-.01.431-.04.522-.07.26-.12.591-.171.922v1.383l.401.912c.03.151.04.291.04.421-.01.692-.32 1.173-1.012 1.544l.03-.09-.21.14c-.02.01-.03.02-.03.02-.722.441-2.115.652-3.619.652s-2.887-.201-3.609-.652c-.24-.1-.451-.221-.521-.321-.07-.09-.19-.341-.28-.501-.101-.1.05-.321-.161-.692-.19-.29-.21-.38-.22-.631 0-.09.01-.211.02-.351v-.18c0-.451-.04-.832-.09-1.253-.011-.07-.011-.151-.011-.241-.01-.311.051-.691.151-.842.19-.321.12-.421.19-.541.03-.07.04-.14.04-.211-.01-.3-.17-.681-.17-.791-.02-.442 0-2.386-.05-3.619l-.01-.1-.09-.05a1.977 1.977 0 0 0-.822-.311l-1.484-.211h-.02a42.122 42.122 0 0 1-3.097.111c-.411 0-.802 0-1.193-.01h-.17c-1.003 0-1.935.16-2.777.23-.04.01-.07.01-.11.01-.171.01-.251-.05-.531-.05-.171 0-.391.02-.752.09h-.04c-.171.02-.491-.27-.933-.29-.06 0-.12 0-.18.02-.14.04-.291.05-.441.05-.341 0-.712-.07-1.063-.11-.31-.021-.571-.031-.811-.031-.311 0-.602.01-.953.01-.13 0-1.052.091-1.593.091-.101 0-.191 0-.251-.01h-.01l-.01-.02-.08-.02a2.001 2.001 0 0 0-.351-.031c-.231 0-.471.021-.652.021-.06 0-.12-.01-.15-.01-.291-.021-.381-.031-.491-.031-.13 0-.251.01-.682.031-.24.01-.451.01-.631.01-1.013 0-1.374-.121-2.396-.121-.19 0-.411.01-.661.02-1.524.06-2.907.06-4.331.431a4.331 4.331 0 0 1-1.142.131c-1.283 0-2.887-.351-4.03-.441-.03 0-.05-.01-.09-.01h-.01l-.05-.01c-.331-.041-.872-.181-1.223-.642-.441-.571-.652-1.704-.652-2.927s.211-2.355.652-2.927c.461-.621 1.333-.661 1.463-.661h2.546c.01.01.01.01.02.01l.03.01.582.01c.441.04.892.05 1.333.05.872 0 1.734-.05 2.596-.05.321 0 .632 0 .952.02.912.04 1.253.18 1.785.18.31 0 .661-.05 1.182-.19.762-.191 1.073-.01 2.005-.261.05-.01.09-.02.14-.02Zm56.123 14.615c-.531 0-1.022.12-1.504.14-.431.03-.892.15-1.222.23-.361.071-.421.171-.692.331-.652.421-1.454.722-2.025 1.394-.431.521-.952.872-1.403 1.543-.281.441-.421 1.183-.491 1.654-.081.451-.141.772-.231 1.002-.17.351-.311.562-.311 1.013 0 .1.01.21.02.341.01.07.01.12.01.17 0 .13-.02.201-.02.331-.01.11.02.23.091.391.581 1.283.29 2.486 1.102 3.849.141.2.401.371.652.551.13.09.24.171.321.231.04.03.07.05.08.07l.02.03c.15.311.461.361.651.351h.111c.11 0 .19.01.26.04.391.2.592.461.982.571.251.05 1.033.191 1.093.281l.03.03.732.251h.02s.671.06 1.062.06h.111l.05-.04c.04-.03.13-.051.26-.051.101 0 .221.01.341.01.151-.01.311-.01.461-.13.08-.09.512-.12.772-.18.692-.191 1.093-.511 1.734-.742h.01c.391 0 .802-.09 1.333-.672.151-.16.331-.411.451-.521.241-.2.331-.451.482-.541.421-.331.771-.962.962-1.353.291-.562.541-1.213.651-1.865.091-.571.231-.792.231-1.303 0-.08 0-.17-.01-.26-.02-.542-.14-.812-.331-1.314-.12-.37-.08-1.102-.371-1.563-.471-.642-.992-1.544-1.543-2.175-1.434-1.624-2.436-1.534-4.13-2.045a2.866 2.866 0 0 0-.802-.11Zm-73.794 8.039c.13 0 .28.01.471.05.661.11 1.423.441 2.245.451.04-.01.08-.01.13-.01l2.155.05.031-.01a3.762 3.762 0 0 1 1.273-.221c.711 0 1.313.211 2.105.311.781.06 1.232.501 1.964.521.261 0 .541-.07.852-.23.612-.291.511-.231 1.233-.391.612-.141 2.356-.1 3.027-.141 1.634-.14 2.897-.27 4.31-.27.351 0 .722.01 1.103.03.762.01 2.767.09 3.368.381l.04.02h9.192l3.899-.05.05-.04c.01 0 .05-.02.11-.02.241 0 .652.2.993.21h.04c.1-.01.1-.02.2-.05.08-.03.181-.05.201-.05h.02c.04.01.14.05.27.06h.151c.671 0 1.413-.17 2.055-.17.27 0 .521.03.741.11l.03.01h.732l.06-.05c.271-.241.562-.321 1.073-.361h.06c.17 0 .361.03.581.03.111 0 .221-.01.331-.03.01-.01.03-.01.06-.01.221 0 .532.12.892.13h.081l4.55.291h.091c.05 0 .13.01.22.02h.01l.04.04c.331.05.872.19 1.213.642.451.571.662 1.694.652 2.926 0 .331-.02.662-.05.973l-.031.25v.05c0 .111.01.211.01.281 0 .1-.01.16-.04.201-.381.541-.371.731-.832 1.373-.08.17-.521.12-.932.371-.15.09-.451.14-.762.13a6.2 6.2 0 0 1-.781-.06 7.056 7.056 0 0 0-1.003-.07c-.361 0-.711.02-1.132.04-.632.01-1.233.05-1.865.09h-.03c-.231 0-.652-.11-1.002-.11-.101 0-.201.01-.301.04-.1.04-.17.05-.261.05-.13 0-.26-.03-.421-.07a.821.821 0 0 0-.3-.05c-.341.01-.562.14-.782.13-.06 0-.131 0-.201-.02-.19-.03-.361-.04-.521-.04-.361 0-.692.05-1.032.05h-.141c-.11 0-1.513-.06-1.513-.06h-.03c-.081 0-.151.01-.221.01h-.03l-.02.01c-.02.01-.06.01-.09.02h-10.305l-.05.12c-.17.361-.21.792-.21 1.233 0 .712.11 1.494.11 2.205 0 .161-.01.321-.02.471-.05.612-.1.742-.1 1.484.01.271-.04 1.604.291 2.366l.05.12h13.572c.481 0 .952.08 1.393.22l.02.01c.01.01.02.01.03.01l.06.02c.01.01.03.01.04.02.231.081.441.171.632.281.571.231.792.261.872.311.07.03.16.14.501.581.702.882 1.113 1.744 1.113 2.506 0 .271-.05.521-.151.772l-.01.04v.04c-.04.231-.05.491-.05.752 0 .712.1 1.413.1 1.985 0 .16-.01.31-.03.451-.13.922-.19 6.164-.19 7.086 0 .592-.09 2.366-.09 3.709 0 .521.02.983.05 1.293.12 1.093.2 1.604.371 2.606.04.191.06.371.06.532-.01.701-.371 1.193-1.183 1.553l-.17.071c-.772.34-1.985.491-3.288.491-1.504 0-2.907-.211-3.619-.662a1.608 1.608 0 0 1-.751-1.032 2.26 2.26 0 0 1-.151-.832c0-.161.01-.321.04-.491a1.85 1.85 0 0 0 .221-.903c0-.19-.01-.36-.01-.561 0-.13.01-.281.03-.451.01-.04.01-.07.01-.11-.01-.211-.06-.421-.06-.572 0-.06.02-.1.02-.11l.03-.05-.08-1.514c-.04-.34-.05-1.242-.05-2.385 0-1.875.04-4.421.06-6.345v-.14c0-.361.01-.712.01-1.023v-.25l-.131.03c-.431-.562-1.243-.642-2.044-.702-.872-.06-1.795-.07-2.326-.371l-.17-.09-.101.17c-.18.381-1.052.542-2.044.531-.732 0-1.514-.06-2.115-.06-.231 0-.431.01-.612.04-.14.02-.28.031-.421.031-.521.01-1.022-.141-1.654-.271-.741-.161-1.543-.161-2.265-.221-.241-.01-.501-.01-.772-.01-.351 0-.702 0-1.002.03-.632.091-1.103.421-1.604.482-.07.01-.14.02-.211.02-.36 0-.811-.141-1.192-.221-.832-.16-1.654-.21-2.466-.21-1.594 0-3.168.2-4.731.2-.431 0-.852-.02-1.283-.05-1.003-.08-3.138-.15-4.471-.181h-.05l-.04.021c-.07.03-.151.06-.231.1h-1.503l-.02.01c-.101.02-.201.05-.291.08-.05.01-.08.02-.09.02-.02-.01-.141-.09-.311-.11h-.11c-.12.02-.191.03-.241.03-.03 0-.06 0-.08-.01l-.02-.01-.03-.01h-.261c-.13 0-.992-.04-1.463-.662a.362.362 0 0 1-.09-.13c-.381-.602-.562-1.654-.562-2.797 0-1.223.211-2.355.652-2.927.12-.17.27-.29.431-.381.341-.26.732-.38 1.233-.38.11 0 .21.01.321.02h.04l.05-.01c.331-.121.561-.281.792-.281h.08c.581-.01 1.193.271 1.904.281h.07c.652-.04 1.785-.061 2.907-.061 1.003 0 1.985.01 2.596.031.311.02.622.02.933.02.371 0 .741-.01 1.102-.01.572 0 1.123.02 1.674.1h2.396l.05-.03c.16-.101.281-.161.411-.171h.03l.18-.01.01-.18c.021-.421.081-1.083.111-1.323.04-.251.05-.301.06-.321.02-.05.02-.1.02-.221 0-.431-.14-1.263-.18-1.663-.011-.031-.011-.071-.011-.121 0-.481.221-1.473.221-2.035 0-.07 0-.14-.01-.2-.05-.341-.1-.982-.1-1.474v-.26h-12.069l-.05-.05-6.565.05c-.522-.03-.953-.08-1.404-.08-.21 0-.421.01-.651.04-.321.03-.792.12-1.163.12-.19 0-.351-.03-.441-.07l-.04-.02h-.271c-.13 0-1.002-.04-1.473-.662-.441-.571-.652-1.704-.652-2.927s.211-2.355.652-2.927c.3-.4.752-.561 1.082-.621h.03l.03-.02c.101-.05.221-.11.472-.14l.06-.01.04-.041c0-.01.04-.03.14-.02.291-.01.842.141 1.444.141.26 0 .541-.03.811-.121.652-.2.863-.4 1.344-.39Z"/><path fill="#a86913" d="M173.907 242.87a72.508 72.508 0 0 0 14.023-1.975c1.554 17.511 3.067 34.211 3.218 35.955-.111.08-.191.14-.191.14-4.27 3.098-12.048 2.065-15.136-2.195-1.152-1.584-1.774-3.508-1.834-5.733l-.08-26.192Zm64.452-46.911a72.196 72.196 0 0 1-6.205 12.73 18440.666 18440.666 0 0 1 33.199 14.163c.12-.08.2-.15.2-.15 4.26-3.077 5.694-10.805 2.586-15.066-1.152-1.573-2.796-2.756-4.891-3.508l-24.889-8.169Zm-40.696 85.402c2.225 2.766 5.313 4.59 8.801 5.172 4.18.692 8.48-.391 12.128-3.037a15.765 15.765 0 0 0 3.679-3.799 242408.77 242408.77 0 0 1-20.137-43.884 75.518 75.518 0 0 1-8.23 3.378c1.494 16.78 3.228 36.246 3.759 42.17m60.844-27.966c1.704-.522 3.308-1.273 4.741-2.326 3.649-2.656 6.014-6.425 6.636-10.595.531-3.498-.251-6.996-2.196-9.974-5.483-2.335-23.455-9.993-38.972-16.609a70.448 70.448 0 0 1-5.743 6.776c13.562 12.5 30.271 27.876 35.524 32.728m-51.011-20.449c9.212 20.058 19.657 42.852 21.531 46.911 5.262 5.353 14.915 5.984 21.862 1.053 6.696-4.982 9.141-14.284 5.763-20.99a47097.206 47097.206 0 0 0-38.04-35.043 72.529 72.529 0 0 1-5.352 4.29 74.62 74.62 0 0 1-5.774 3.779m-103.945-36.987a71.57 71.57 0 0 0 6.214 12.74 18144.897 18144.897 0 0 0-33.188 14.173c-.13-.08-.22-.15-.22-.15-4.25-3.087-5.674-10.805-2.577-15.065 1.163-1.584 2.797-2.777 4.892-3.509l24.879-8.189Zm64.452 46.911a71.203 71.203 0 0 1-14.023-1.975c-1.564 17.521-3.068 34.211-3.218 35.935.11.1.201.16.201.16 4.25 3.098 12.038 2.055 15.125-2.195 1.163-1.574 1.775-3.508 1.835-5.733l.08-26.192Zm-93.722-12.329c-1.934 2.977-2.726 6.465-2.195 9.963.652 4.18 3.007 7.949 6.646 10.605 1.443 1.043 3.047 1.804 4.741 2.326 5.263-4.852 21.952-20.228 35.524-32.718a71.798 71.798 0 0 1-5.753-6.776l-38.963 16.6m45.408 49.216a15.78 15.78 0 0 0 3.678 3.799c3.649 2.636 7.959 3.729 12.129 3.037 3.488-.571 6.566-2.406 8.801-5.152.521-5.944 2.255-25.41 3.759-42.2a69.439 69.439 0 0 1-8.22-3.378c-7.708 16.77-17.17 37.419-20.147 43.904m3.608-54.94a39052.033 39052.033 0 0 1-37.97 34.973c-3.458 6.665-1.062 16.038 5.764 21.11 6.816 4.841 16.399 4.29 21.752-1.003 1.984-4.31 12.399-27.024 21.56-47.001a74.41 74.41 0 0 1-5.743-3.759 73.156 73.156 0 0 1-5.373-4.33m116.876-34.371a70.95 70.95 0 0 0 2.476-13.943c17.141 3.919 33.479 7.648 35.183 8.049.05.13.07.23.07.23 1.624 5.002-1.764 12.089-6.766 13.713-1.864.601-3.889.601-6.014-.04l-24.949-8.009Zm-24.558-75.879a71.51 71.51 0 0 1 10.204 9.833c11.548-13.261 22.574-25.871 23.716-27.194-.03-.13-.06-.241-.06-.241-1.634-5.002-8.54-8.74-13.532-7.117-1.874.602-3.508 1.814-4.861 3.579l-15.467 21.14Zm68.562 65.154c3.318-1.263 5.994-3.629 7.628-6.776 1.945-3.759 2.256-8.18.862-12.47-.561-1.704-1.403-3.248-2.465-4.671-7.097.822-29.661 3.468-47.974 5.583.401 2.967.642 5.934.672 8.871 16.419 3.769 35.464 8.139 41.277 9.463m-7.818-66.457c.03-1.775-.191-3.539-.752-5.243-1.393-4.28-4.25-7.688-8.029-9.582-3.167-1.594-6.726-1.925-10.144-1.003-3.929 4.501-16.769 19.226-27.846 31.926 1.714 2.395 3.258 4.931 4.671 7.567 16.078-9.041 35.875-20.167 42.11-23.676m-35.193 42.21c21.922-2.556 46.84-5.453 51.271-5.984 6.716-3.338 10.294-12.329 7.738-20.458-2.666-7.909-10.745-13.101-18.193-11.979-4.13 2.326-25.901 14.575-45.066 25.35a71.11 71.11 0 0 1 2.435 6.426 72.367 72.367 0 0 1 1.805 6.645m-114.771-40.896a69.845 69.845 0 0 0-10.195 9.823c-11.557-13.262-22.583-25.871-23.726-27.184l.07-.241c1.634-5.012 8.541-8.74 13.533-7.117 1.874.602 3.508 1.805 4.851 3.569l15.467 21.15Zm-24.659 75.879a72.117 72.117 0 0 1-2.466-13.953c-17.14 3.939-33.479 7.658-35.173 8.059l-.09.23c-1.624 5.012 1.764 12.089 6.766 13.723 1.875.601 3.89.591 6.024-.04l24.939-8.019Zm-17.23-93.02a14.297 14.297 0 0 0-10.154.972c-3.78 1.925-6.636 5.313-8.02 9.593-.55 1.704-.781 3.468-.751 5.242 6.225 3.499 26.031 14.635 42.099 23.676a70.782 70.782 0 0 1 4.671-7.568c-11.076-12.7-23.916-27.414-27.835-31.915m-32.758 58.438c-1.072 1.424-1.914 2.977-2.466 4.661-1.393 4.28-1.082 8.721.862 12.48 1.634 3.147 4.32 5.513 7.628 6.766 5.824-1.323 24.87-5.684 41.288-9.463.03-2.947.26-5.894.672-8.851-18.324-2.145-40.887-4.771-47.984-5.603m53.286-13.522c-19.235-10.815-41.097-23.114-44.996-25.3-7.398-1.243-15.567 3.93-18.293 12.009-2.496 7.969.992 16.91 7.678 20.368 4.71.551 29.53 3.438 51.371 5.974a73.896 73.896 0 0 1 1.794-6.616 76.229 76.229 0 0 1 2.446-6.435m105.85-31.173a70.658 70.658 0 0 0-12.499-6.656c9.031-15.086 17.621-29.47 18.523-30.973.151 0 .251-.01.251-.01 5.272 0 10.946 5.412 10.946 10.675 0 1.965-.632 3.889-1.885 5.723l-15.336 21.241Zm-79.788 0a71.008 71.008 0 0 1 12.499-6.656 30057.651 30057.651 0 0 1-18.524-30.973c-.14 0-.24-.01-.24-.01-5.263 0-10.946 5.412-10.946 10.675 0 1.965.632 3.889 1.894 5.723l15.317 21.241Zm83.196-45.127c-.18-3.538-1.594-6.836-4.079-9.352-2.977-2.997-7.107-4.671-11.608-4.671-1.794 0-3.528.33-5.202.902-1.403 7.006-5.874 29.27-9.513 47.352a72.386 72.386 0 0 1 8.641 2.095c8.65-14.454 18.694-31.214 21.751-36.326M148.517 52.92c-1.674-.571-3.418-.902-5.202-.902-4.511 0-8.631 1.674-11.598 4.67-2.486 2.517-3.909 5.815-4.089 9.353 3.077 5.122 13.111 21.882 21.761 36.336a73.637 73.637 0 0 1 8.63-2.095c-3.628-18.093-8.099-40.355-9.502-47.362m29.369 46.51c4.341-21.641 9.272-46.23 10.154-50.61-1.122-7.427-8.56-13.602-17.06-13.692-8.36.09-15.797 6.175-17.01 13.602.932 4.651 5.854 29.149 10.184 50.7 2.255-.22 4.541-.33 6.846-.33 2.325 0 4.621.12 6.886.33"/></svg>